<?xml version="1.0" encoding="UTF-8" standalone="no"?>
<!DOCTYPE svg PUBLIC "-//W3C//DTD SVG 1.1//EN" "http://www.w3.org/Graphics/SVG/1.1/DTD/svg11.dtd">
<!-- Created with Vectornator (http://vectornator.io/) -->
<svg height="100%" stroke-miterlimit="10" style="fill-rule:nonzero;clip-rule:evenodd;stroke-linecap:round;stroke-linejoin:round;" version="1.1" viewBox="0 0 1800 1800" width="100%" xml:space="preserve" xmlns="http://www.w3.org/2000/svg" xmlns:vectornator="http://vectornator.io" xmlns:xlink="http://www.w3.org/1999/xlink">
<defs/>
<g id="Untitled" vectornator:layerName="Untitled">
<path d="M1585.96 613.681C1575.52 621.782 1391.18 725.653 1391.18 956.616C1391.18 1223.76 1625.74 1318.27 1632.76 1320.61C1631.68 1326.37 1595.5 1450.05 1509.09 1576.06C1432.04 1686.95 1351.58 1797.66 1229.16 1797.66C1106.75 1797.66 1075.25 1726.55 933.933 1726.55C796.22 1726.55 747.255 1800 635.284 1800C523.312 1800 445.185 1697.39 355.356 1571.38C251.305 1423.4 167.237 1193.52 167.237 975.338C167.237 625.383 394.779 439.784 618.722 439.784C737.714 439.784 836.904 517.912 911.611 517.912C982.718 517.912 1093.61 435.104 1228.98 435.104C1280.29 435.104 1464.63 439.784 1585.96 613.681ZM1164.72 286.949C1220.7 220.522 1260.31 128.353 1260.31 36.1836C1260.31 23.4023 1259.23 10.441 1256.89 0C1165.8 3.42034 1057.43 60.6661 992.079 136.454C940.774 194.779 892.889 286.949 892.889 380.378C892.889 394.419 895.229 408.461 896.31 412.961C902.07 414.041 911.431 415.302 920.792 415.302C1002.52 415.302 1105.31 360.576 1164.72 286.949Z" fill="#000000" fill-rule="nonzero" opacity="1" stroke="none"/>
</g>
</svg>
