<?xml version="1.0" encoding="UTF-8" standalone="no"?>
<!DOCTYPE svg PUBLIC "-//W3C//DTD SVG 1.1//EN" "http://www.w3.org/Graphics/SVG/1.1/DTD/svg11.dtd">
<!-- Created with Vectornator (http://vectornator.io/) -->
<svg height="100%" stroke-miterlimit="10" style="fill-rule:nonzero;clip-rule:evenodd;stroke-linecap:round;stroke-linejoin:round;" version="1.1" viewBox="0 0 1800 1800" width="100%" xml:space="preserve" xmlns="http://www.w3.org/2000/svg" xmlns:vectornator="http://vectornator.io" xmlns:xlink="http://www.w3.org/1999/xlink">
<defs/>
<clipPath id="ArtboardFrame">
<rect height="1800" width="1800" x="0" y="0"/>
</clipPath>
<g clip-path="url(#ArtboardFrame)" id="Untitled" vectornator:layerName="Untitled">
<g opacity="1">
<path d="M852.984 12.2693C882.084-4.0593 917.912-4.0593 946.969 12.2693C1090.76 92.9692 1523.44 335.883 1667.27 416.583C1696.37 432.869 1714.28 463.04 1714.28 495.697C1714.28 657.097 1714.28 1142.88 1714.28 1304.28C1714.28 1336.94 1696.37 1367.11 1667.27 1383.44C1523.48 1464.14 1090.8 1707.05 946.97 1787.75C917.87 1804.08 882.041 1804.08 852.984 1787.75C709.198 1707.05 276.513 1464.14 132.684 1383.44C103.627 1367.11 85.7131 1336.98 85.7131 1304.33C85.7131 1142.93 85.7131 657.14 85.7131 495.74C85.7131 463.083 103.627 432.912 132.727 416.583C276.47 335.883 709.241 92.9692 852.984 12.2693Z" fill="#283593" fill-rule="evenodd" opacity="1" stroke="none"/>
<path d="M98.7416 1345.9C87.3416 1330.64 85.713 1316.15 85.713 1296.65C85.713 1136.2 85.713 653.197 85.713 492.697C85.713 460.212 103.584 430.212 132.599 414.012C275.87 333.783 707.098 92.2834 850.37 12.0121C879.384-4.23078 918.684-3.88793 947.698 12.3549C1090.97 92.5834 1520.74 332.026 1664.01 412.255C1675.58 418.769 1684.41 426.612 1692.3 436.94L98.7416 1345.9Z" fill="#5c6bc0" fill-rule="evenodd" opacity="1" stroke="none"/>
<path d="M899.998 300.012C1231.15 300.012 1500 568.855 1500 900.011C1500 1231.17 1231.15 1500.01 899.998 1500.01C568.841 1500.01 299.999 1231.17 299.999 900.011C299.999 568.855 568.841 300.012 899.998 300.012ZM899.998 600.012C1065.56 600.012 1200 734.412 1200 900.011C1200 1065.57 1065.56 1200.01 899.998 1200.01C734.441 1200.01 599.998 1065.57 599.998 900.011C599.998 734.412 734.398 600.012 899.998 600.012Z" fill="#ffffff" fill-rule="evenodd" opacity="1" stroke="none"/>
<path d="M1692.21 437.369C1714.33 458.069 1713.9 489.269 1713.9 513.826C1713.9 676.469 1712.53 1139.07 1714.28 1301.71C1714.45 1318.68 1708.84 1336.55 1700.44 1350.01L882.555 900.011L1692.21 437.369Z" fill="#3949ab" fill-rule="evenodd" opacity="1" stroke="none"/>
</g>
</g>
</svg>
