<?xml version="1.0" encoding="UTF-8" standalone="no"?>
<!DOCTYPE svg PUBLIC "-//W3C//DTD SVG 1.1//EN" "http://www.w3.org/Graphics/SVG/1.1/DTD/svg11.dtd">
<!-- Created with Vectornator (http://vectornator.io/) -->
<svg height="100%" stroke-miterlimit="10" style="fill-rule:nonzero;clip-rule:evenodd;stroke-linecap:round;stroke-linejoin:round;" version="1.1" viewBox="0 0 300 300" width="100%" xml:space="preserve" xmlns="http://www.w3.org/2000/svg" xmlns:vectornator="http://vectornator.io" xmlns:xlink="http://www.w3.org/1999/xlink">
<defs/>
<g id="Untitled" vectornator:layerName="Untitled">
<g opacity="1">
<path d="M41.9441 269.495L17.884 5.32907e-15L282.116 5.32907e-15L258.056 269.603L149.678 300" fill="#e34f26" fill-rule="nonzero" opacity="1" stroke="none"/>
<path d="M150.322 276.584L237.54 252.524L258.056 21.8045L150.322 21.8045" fill="#ef652a" fill-rule="nonzero" opacity="1" stroke="none"/>
<path d="M150.322 121.912L106.284 121.912L103.383 87.9699L150.322 87.9699L150.322 55.102L67.0784 55.102L67.7229 63.9098L75.8861 155.209L150.322 155.209L150.322 121.912ZM150.322 208.056L149.678 208.056L112.836 198.067L110.473 171.751L77.6047 171.751L81.7938 223.845L149.678 242.535L150.322 242.535L150.322 208.056Z" fill="#ebebeb" fill-rule="nonzero" opacity="1" stroke="none"/>
<path d="M149.678 121.912L149.678 155.209L190.816 155.209L186.735 198.067L149.785 208.056L149.785 242.535L217.777 223.845L218.314 217.938L225.94 130.72L227.121 121.912L217.669 121.912L149.678 121.912ZM149.678 55.102L149.678 87.9699L229.914 87.9699L230.559 80.8808L232.277 63.9098L232.922 55.102L149.678 55.102Z" fill="#ffffff" fill-rule="nonzero" opacity="1" stroke="none"/>
</g>
</g>
</svg>
