<?xml version="1.0" encoding="UTF-8" standalone="no"?>
<!DOCTYPE svg PUBLIC "-//W3C//DTD SVG 1.1//EN" "http://www.w3.org/Graphics/SVG/1.1/DTD/svg11.dtd">
<!-- Created with Vectornator (http://vectornator.io/) -->
<svg height="100%" stroke-miterlimit="10" style="fill-rule:nonzero;clip-rule:evenodd;stroke-linecap:round;stroke-linejoin:round;" version="1.1" viewBox="0 0 1800 1800" width="100%" xml:space="preserve" xmlns="http://www.w3.org/2000/svg" xmlns:vectornator="http://vectornator.io" xmlns:xlink="http://www.w3.org/1999/xlink">
<defs/>
<clipPath id="ArtboardFrame">
<rect height="1800" width="1800" x="0" y="0"/>
</clipPath>
<g clip-path="url(#ArtboardFrame)" id="Untitled" vectornator:layerName="Untitled">
<path d="M1626.31 1402.75C1599.09 1465.63 1566.87 1523.52 1529.54 1576.74C1478.65 1649.29 1436.98 1699.52 1404.87 1727.4C1355.1 1773.18 1301.77 1796.62 1244.66 1797.96C1203.66 1797.96 1154.21 1786.29 1096.66 1762.62C1038.92 1739.07 985.853 1727.4 937.332 1727.4C886.445 1727.4 831.869 1739.07 773.493 1762.62C715.028 1786.29 667.929 1798.62 631.919 1799.85C577.154 1802.18 522.567 1778.07 468.08 1727.4C433.303 1697.07 389.804 1645.07 337.695 1571.41C281.786 1492.74 235.82 1401.52 199.81 1297.53C161.245 1185.2 141.912 1076.42 141.912 971.115C141.912 850.485 167.978 746.444 220.187 659.258C261.219 589.227 315.807 533.984 384.127 493.43C452.447 452.875 526.267 432.209 605.765 430.887C649.263 430.887 706.306 444.342 777.193 470.786C847.879 497.318 893.267 510.774 913.166 510.774C928.044 510.774 978.464 495.041 1063.94 463.675C1144.77 434.587 1212.99 422.543 1268.88 427.287C1420.32 439.509 1534.09 499.207 1609.76 606.76C1474.32 688.824 1407.32 803.765 1408.65 951.216C1409.87 1066.07 1451.54 1161.64 1533.43 1237.53C1570.54 1272.75 1611.98 1299.97 1658.09 1319.3C1648.09 1348.3 1637.53 1376.08 1626.31 1402.75ZM1278.99 36.0103C1278.99 126.031 1246.1 210.083 1180.55 287.88C1101.44 380.366 1005.75 433.809 901.989 425.376C900.667 414.576 899.9 403.21 899.9 391.266C899.9 304.846 937.521 212.36 1004.33 136.74C1037.68 98.4528 1080.11 66.6171 1131.55 41.2212C1182.88 16.2041 1231.43 2.36918 1277.1-1.13687e-13C1278.43 12.0343 1278.99 24.0694 1278.99 36.0091L1278.99 36.0103Z" fill="#b3b3b3" fill-rule="nonzero" opacity="1" stroke="none"/>
</g>
</svg>
