<?xml version="1.0" encoding="UTF-8" standalone="no"?>
<!DOCTYPE svg PUBLIC "-//W3C//DTD SVG 1.1//EN" "http://www.w3.org/Graphics/SVG/1.1/DTD/svg11.dtd">
<!-- Created with Vectornator (http://vectornator.io/) -->
<svg height="100%" stroke-miterlimit="10" style="fill-rule:nonzero;clip-rule:evenodd;stroke-linecap:round;stroke-linejoin:round;" version="1.1" viewBox="0 0 345.38 346" width="100%" xml:space="preserve" xmlns="http://www.w3.org/2000/svg" xmlns:vectornator="http://vectornator.io" xmlns:xlink="http://www.w3.org/1999/xlink">
<defs/>
<g id="Untitled" vectornator:layerName="Untitled">
<g opacity="1">
<path d="M127.365 267.413C127.365 267.413 114.167 275.088 136.758 277.685C164.127 280.807 178.114 280.36 208.275 274.651C208.275 274.651 216.205 279.623 227.278 283.93C159.667 312.907 74.2586 282.251 127.365 267.413M119.103 229.599C119.103 229.599 104.3 240.557 126.908 242.895C156.144 245.911 179.232 246.158 219.184 238.465C219.184 238.465 224.71 244.067 233.399 247.131C151.652 271.035 60.6006 249.016 119.103 229.599" fill="#5382a1" fill-rule="nonzero" opacity="1" stroke="none"/>
<path d="M188.753 165.455C205.413 184.635 184.376 201.895 184.376 201.895C184.376 201.895 226.677 180.058 207.25 152.712C189.106 127.212 175.191 114.54 250.518 70.8535C250.518 70.8535 132.28 100.384 188.753 165.454" fill="#e76f00" fill-rule="nonzero" opacity="1" stroke="none"/>
<path d="M278.175 295.382C278.175 295.382 287.942 303.429 267.418 309.655C228.392 321.478 104.986 325.048 70.7036 310.126C58.3806 304.766 81.4906 297.326 88.7596 295.764C96.3406 294.12 100.674 294.427 100.674 294.427C86.9686 284.772 12.0906 313.384 62.6396 321.577C200.493 343.933 313.932 311.511 278.175 295.382M133.711 190.42C133.711 190.42 70.9396 205.33 111.483 210.743C128.601 213.035 162.726 212.517 194.513 209.853C220.491 207.663 246.576 203.003 246.576 203.003C246.576 203.003 237.416 206.926 230.789 211.451C167.045 228.216 43.9026 220.417 79.3536 203.268C109.335 188.776 133.712 190.42 133.712 190.42M246.317 253.362C311.117 219.69 281.156 187.332 260.244 191.692C255.118 192.758 252.833 193.682 252.833 193.682C252.833 193.682 254.736 190.702 258.37 189.412C299.74 174.867 331.557 232.309 245.015 255.059C245.015 255.06 246.018 254.164 246.317 253.362" fill="#5382a1" fill-rule="nonzero" opacity="1" stroke="none"/>
<path d="M207.25 0.310545C207.25 0.310545 243.137 36.2105 173.213 91.4115C117.142 135.694 160.427 160.942 173.19 189.789C140.46 160.259 116.44 134.263 132.555 110.069C156.206 74.5515 221.729 57.3325 207.25 0.309545" fill="#e76f00" fill-rule="nonzero" opacity="1" stroke="none"/>
<path d="M140.079 344.605C202.278 348.587 297.791 342.396 300.053 312.965C300.053 312.965 295.705 324.123 248.649 332.983C195.561 342.973 130.085 341.807 91.2496 335.404C91.2506 335.404 99.1996 341.984 140.08 344.605" fill="#5382a1" fill-rule="nonzero" opacity="1" stroke="none"/>
</g>
</g>
</svg>
