<?xml version="1.0" encoding="UTF-8" standalone="no"?>
<!DOCTYPE svg PUBLIC "-//W3C//DTD SVG 1.1//EN" "http://www.w3.org/Graphics/SVG/1.1/DTD/svg11.dtd">
<!-- Created with Vectornator (http://vectornator.io/) -->
<svg height="100%" stroke-miterlimit="10" style="fill-rule:nonzero;clip-rule:evenodd;stroke-linecap:round;stroke-linejoin:round;" version="1.1" viewBox="0 0 1800 1800" width="100%" xml:space="preserve" xmlns="http://www.w3.org/2000/svg" xmlns:vectornator="http://vectornator.io" xmlns:xlink="http://www.w3.org/1999/xlink">
<defs/>
<clipPath id="ArtboardFrame">
<rect height="1800" width="1800" x="0" y="0"/>
</clipPath>
<g clip-path="url(#ArtboardFrame)" id="Untitled" vectornator:layerName="Untitled">
<g opacity="1">
<path d="M1589.47 1420.05C1589.45 1420.04 1589.43 1420.01 1589.43 1419.99C1576.69 1405.61 1570.63 1378.97 1564.1 1350.58C1557.6 1322.2 1550.31 1291.61 1527.02 1271.79C1526.98 1271.73 1526.91 1271.71 1526.87 1271.65C1522.26 1267.62 1517.51 1264.23 1512.75 1261.39C1507.97 1258.56 1503.13 1256.26 1498.27 1254.42C1530.65 1158.41 1517.96 1062.78 1485.27 976.396C1445.17 870.345 1375.14 777.95 1321.66 714.753C1261.79 639.23 1203.24 567.55 1204.4 461.659C1206.18 300.07 1222.16 0.399157 937.797 0.00026942C926.242-0.0130268 914.169 0.465638 901.604 1.47615C583.824 27.0448 668.123 362.788 663.402 475.194C657.579 557.418 640.918 622.211 584.37 702.573C517.955 781.553 424.402 909.41 380.113 1042.52C359.211 1105.32 349.265 1169.34 358.44 1229.94C355.568 1232.52 352.842 1235.23 350.21 1238C330.717 1258.83 316.304 1284.06 300.256 1301.04C285.244 1316.02 263.89 1321.7 240.383 1330.12C216.888 1338.55 191.093 1350.98 175.444 1381.01C175.444 1381.01 175.444 1381.04 175.417 1381.04C175.391 1381.08 175.377 1381.15 175.337 1381.19C167.971 1394.94 165.578 1409.77 165.578 1424.81C165.578 1438.73 167.626 1452.83 169.713 1466.4C174.034 1494.64 178.422 1521.36 172.598 1539.45C154.024 1590.3 151.617 1625.44 164.714 1650.95C177.85 1676.52 204.815 1687.78 235.303 1694.17C296.28 1706.88 378.863 1703.73 443.921 1738.23L449.532 1727.67L443.988 1738.24C513.66 1774.68 584.29 1787.61 640.626 1774.74C681.499 1765.42 714.659 1741.09 731.692 1703.65C775.769 1703.43 824.127 1684.77 901.604 1680.5C954.165 1676.27 1019.82 1699.18 1095.34 1694.98C1097.31 1703.17 1100.17 1711.05 1104.08 1718.54C1104.12 1718.61 1104.16 1718.69 1104.2 1718.75C1133.48 1777.29 1187.86 1804.07 1245.84 1799.5C1303.88 1794.93 1365.59 1760.7 1415.5 1701.35L1406.34 1693.66L1415.56 1701.25C1463.12 1643.59 1542.03 1619.69 1594.39 1588.13C1620.55 1572.35 1641.77 1552.59 1643.43 1523.88C1645.05 1495.2 1628.2 1463.05 1589.47 1420.05" fill="#202020" fill-rule="nonzero" opacity="1" stroke="none"/>
<path d="M1619.54 1522.52C1618.53 1540.23 1605.71 1553.39 1582.02 1567.66C1534.68 1596.2 1450.77 1621.05 1397.2 1685.95C1350.65 1741.33 1293.91 1771.74 1243.95 1775.69C1193.99 1779.63 1150.89 1758.9 1125.45 1707.89L1125.41 1707.79L1125.36 1707.65C1109.57 1677.64 1116.14 1630.32 1129.43 1580.4C1142.71 1530.47 1161.8 1479.18 1164.36 1437.53L1164.36 1437.41C1167.04 1384.02 1170.05 1337.39 1179.01 1301.41C1187.98 1265.42 1202.1 1241.08 1227.13 1227.38C1228.3 1226.76 1229.45 1226.14 1230.61 1225.57C1233.43 1271.8 1256.34 1318.98 1296.79 1329.16C1341.06 1340.84 1404.87 1302.85 1431.82 1271.87C1437.21 1271.66 1442.46 1271.38 1447.55 1271.26C1471.21 1270.69 1491 1272.06 1511.28 1289.77L1511.35 1289.82L1511.41 1289.87C1526.98 1303.06 1534.39 1327.99 1540.81 1355.9C1547.23 1383.84 1552.34 1414.23 1571.62 1435.92L1571.63 1435.93L1571.65 1435.98C1608.68 1477.04 1620.58 1504.79 1619.54 1522.52" fill="#ffcd00" fill-rule="nonzero" opacity="1" stroke="none"/>
<path d="M719.861 1653.41L719.848 1653.53L719.848 1653.69C715.566 1709.79 683.921 1740.34 635.323 1751.45C586.766 1762.55 520.896 1751.49 455.133 1717.1C455.106 1717.1 455.093 1717.08 455.066 1717.08C382.296 1678.53 295.737 1682.37 240.199 1670.77C212.437 1664.97 194.3 1656.25 185.99 1640.05C177.693 1623.83 177.494 1595.56 195.165 1547.36L195.245 1547.15L195.311 1546.94C204.06 1519.97 197.585 1490.47 193.343 1462.77C189.102 1435.1 187.027 1409.89 196.481 1392.36L196.574 1392.18C208.674 1368.85 226.437 1360.5 248.456 1352.61C270.515 1344.7 296.642 1338.49 317.264 1317.8L317.397 1317.68L317.503 1317.59C336.57 1297.46 350.904 1272.22 367.67 1254.33C381.817 1239.21 395.978 1229.2 417.318 1229.05C417.571 1229.08 417.797 1229.08 418.05 1229.05C421.786 1229.08 425.748 1229.4 429.95 1230.05C458.284 1234.33 482.975 1254.13 506.775 1286.4L575.477 1411.61L575.504 1411.68L575.543 1411.72C593.813 1449.89 632.425 1491.88 665.134 1534.71C697.856 1577.52 723.158 1620.51 719.861 1653.41" fill="#ffcd00" fill-rule="nonzero" opacity="1" stroke="none"/>
<path d="M1062.49 486.172C1056.97 475.362 1045.69 465.084 1026.52 457.213L1026.48 457.199L1026.41 457.173C986.525 440.087 969.213 438.877 946.955 424.398C910.71 401.103 880.767 392.939 855.876 393.045C842.846 393.085 831.198 395.398 820.774 399.002C790.459 409.439 770.328 431.192 757.723 443.132L757.697 443.159C757.697 443.172 757.683 443.172 757.683 443.198C755.197 445.552 752.006 447.693 744.281 453.357C736.502 459.034 724.828 467.597 708.048 480.189C693.13 491.371 688.277 505.943 693.449 523.002C698.582 540.062 715.042 559.74 745.132 576.759L745.172 576.799L745.238 576.826C763.906 587.795 776.67 602.594 791.309 614.361C798.636 620.238 806.334 625.49 815.615 629.452C824.883 633.414 835.719 636.1 849.268 636.898C881.072 638.746 904.5 629.199 925.163 617.366C945.878 605.545 963.416 591.092 983.546 584.564L983.586 584.537L983.626 584.524C1024.88 571.64 1054.31 545.686 1063.51 521.021C1068.12 508.682 1067.99 496.982 1062.49 486.172" fill="#ffcd00" fill-rule="nonzero" opacity="1" stroke="none"/>
<path d="M957.817 547.067C925.002 564.18 886.656 584.922 845.876 584.922C805.096 584.922 772.893 566.081 749.731 547.719C738.137 538.544 728.736 529.423 721.649 522.788C709.35 513.082 710.813 499.453 715.865 499.852C724.348 500.916 725.625 512.072 730.957 517.058C738.176 523.812 747.231 532.561 758.174 541.257C780.086 558.608 809.298 575.495 845.876 575.495C882.387 575.495 925.002 554.061 951.023 539.475C965.755 531.205 984.516 516.38 999.82 505.144C1011.53 496.555 1011.11 486.197 1020.77 487.327C1030.44 488.458 1023.29 498.789 1009.75 510.609C996.203 522.416 975.022 538.092 957.817 547.067" fill="#202020" fill-rule="nonzero" opacity="1" stroke="none"/>
<path d="M1460.38 1247.42C1455.82 1247.25 1451.34 1247.28 1446.96 1247.38C1446.57 1247.39 1446.18 1247.39 1445.75 1247.39C1457.03 1211.81 1432.1 1185.55 1365.66 1155.5C1296.77 1125.22 1241.87 1128.21 1232.6 1189.69C1232.02 1192.91 1231.54 1196.19 1231.18 1199.51C1226.02 1201.32 1220.85 1203.58 1215.65 1206.42C1183.31 1224.13 1165.64 1256.24 1155.82 1295.65C1146.02 1335 1143.19 1382.58 1140.5 1436.07L1140.5 1436.11C1138.84 1462.99 1127.76 1499.37 1116.57 1537.9C1003.71 1618.41 847.091 1653.29 714.089 1562.52C705.087 1548.26 694.743 1534.14 684.106 1520.21C677.312 1511.31 670.318 1502.48 663.404 1493.75C677.032 1493.77 688.64 1491.53 698.027 1487.29C709.688 1481.98 717.865 1473.5 721.934 1462.59C730.044 1440.79 721.894 1410.02 695.94 1374.88C669.985 1339.75 626.028 1300.11 561.435 1260.49L561.435 1260.48C513.967 1230.95 487.455 1194.77 475.023 1155.49C462.591 1116.19 464.319 1073.69 473.919 1031.76C492.294 951.234 539.509 872.92 569.639 823.777C577.736 817.82 572.537 834.866 539.124 896.893C509.207 953.588 453.243 1084.44 529.856 1186.59C531.904 1113.9 549.269 1039.77 578.414 970.421C620.856 874.209 709.648 707.328 716.695 574.326C720.352 576.972 732.837 585.402 738.394 588.579C738.408 588.593 738.408 588.593 738.434 588.593C754.722 598.179 766.955 612.207 782.791 624.945C798.68 637.696 818.504 648.718 848.474 650.46C851.346 650.62 854.165 650.713 856.904 650.713C887.804 650.713 911.884 640.634 931.948 629.16C953.754 616.688 971.172 602.886 987.686 597.515C987.699 597.488 987.726 597.488 987.739 597.488C1022.64 586.585 1050.36 567.279 1066.13 544.782C1093.24 651.63 1156.28 805.973 1196.81 881.283C1218.35 921.225 1261.2 1006.13 1279.71 1108.42C1291.44 1108.06 1304.38 1109.77 1318.19 1113.32C1366.6 987.812 1277.14 852.656 1236.23 815.014C1219.72 798.979 1218.92 791.799 1227.12 792.132C1271.48 831.395 1329.76 910.309 1350.95 999.407C1360.62 1040.04 1362.68 1082.76 1352.32 1124.92C1357.36 1127.01 1362.53 1129.3 1367.76 1131.78C1445.46 1169.61 1474.18 1202.52 1460.38 1247.42" fill="#ffffff" fill-rule="nonzero" opacity="1" stroke="none"/>
<path d="M1066.13 363.082C1066.31 384.25 1062.65 402.279 1054.62 420.681C1050.05 431.172 1044.78 439.987 1038.45 447.619C1036.31 446.596 1034.09 445.612 1031.79 444.668C1023.79 441.251 1016.73 438.432 1010.38 436.038C1004.04 433.645 999.095 432.023 994.003 430.255C997.699 425.787 1004.97 420.522 1007.68 413.913C1011.79 403.941 1013.8 394.208 1014.19 382.601C1014.19 382.135 1014.33 381.737 1014.33 381.191C1014.57 370.076 1013.1 360.569 1009.85 350.836C1006.45 340.611 1002.13 333.272 995.864 327.156C989.602 321.053 983.339 318.287 975.827 318.034C975.468 318.008 975.135 318.008 974.776 318.008C967.729 318.034 961.6 320.468 955.271 325.759C948.609 331.317 943.676 338.431 939.568 348.336C935.473 358.242 933.465 368.055 933.066 379.729C933 380.181 933 380.58 933 381.045C932.853 387.467 933.279 393.344 934.263 399.048C919.823 391.855 901.354 386.603 888.59 383.558C887.859 378.04 887.447 372.363 887.314 366.393L887.314 364.784C887.088 343.669 890.545 325.56 898.669 307.185C906.793 288.783 916.831 275.553 930.979 264.796C945.139 254.053 959.06 249.12 975.534 248.947L976.305 248.947C992.42 248.947 1006.21 253.694 1020.37 263.959C1034.74 274.409 1045.11 287.453 1053.46 305.709C1061.65 323.512 1065.59 340.904 1065.99 361.526C1065.99 362.071 1065.99 362.537 1066.13 363.082" fill="#ffffff" fill-rule="nonzero" opacity="1" stroke="none"/>
<path d="M822.556 384.171C820.442 384.783 818.381 385.421 816.346 386.126C804.805 390.115 795.644 394.502 786.789 400.366C787.653 394.236 787.773 388.027 787.095 381.073C787.041 380.701 787.041 380.382 787.041 380.009C786.111 370.795 784.156 363.07 780.912 355.265C777.442 347.154 773.559 341.424 768.467 337.009C763.853 333.02 759.478 331.172 754.665 331.226C754.173 331.226 753.668 331.239 753.176 331.279C747.764 331.744 743.27 334.39 739.002 339.576C734.761 344.734 731.982 351.157 729.961 359.679C727.953 368.176 727.421 376.526 728.259 386.112C728.259 386.498 728.352 386.804 728.352 387.189C729.269 396.483 731.144 404.209 734.455 412.013C737.845 420.044 741.794 425.775 746.9 430.176C747.764 430.921 748.602 431.585 749.426 432.171C744.148 436.266 740.598 439.164 736.223 442.355C733.431 444.39 730.12 446.823 726.264 449.682C717.848 441.784 711.279 431.891 705.535 418.808C698.728 403.371 695.098 387.907 694.008 369.652L694.008 369.505C692.997 351.25 694.792 335.547 699.805 319.312C704.831 303.064 711.545 291.323 721.305 281.67C731.051 271.991 740.864 267.124 752.711 266.513C753.628 266.473 754.532 266.446 755.436 266.446C766.153 266.473 775.726 270.036 785.632 277.947C796.362 286.537 804.486 297.506 811.294 312.97C818.115 328.433 821.731 343.897 822.742 362.153L822.742 362.299C823.234 369.957 823.167 377.177 822.556 384.171" fill="#ffffff" fill-rule="nonzero" opacity="1" stroke="none"/>
<path d="M876.397 427.836C877.754 432.197 884.774 431.466 888.829 433.567C892.393 435.401 895.252 439.417 899.254 439.523C903.07 439.643 909.026 438.207 909.518 434.418C910.183 429.405 902.87 426.227 898.163 424.392C892.114 422.039 884.349 420.842 878.671 423.993C877.368 424.725 875.945 426.413 876.397 427.836" fill="#202020" fill-rule="nonzero" opacity="1" stroke="none"/>
<path d="M834.924 427.836C833.568 432.197 826.547 431.466 822.479 433.567C818.928 435.401 816.07 439.417 812.054 439.523C808.238 439.643 802.295 438.207 801.803 434.418C801.138 429.405 808.451 426.227 813.158 424.392C819.208 422.039 826.959 420.842 832.65 423.993C833.94 424.725 835.363 426.413 834.924 427.836" fill="#202020" fill-rule="nonzero" opacity="1" stroke="none"/>
</g>
</g>
</svg>
