<?xml version="1.0" encoding="UTF-8" standalone="no"?>
<!DOCTYPE svg PUBLIC "-//W3C//DTD SVG 1.1//EN" "http://www.w3.org/Graphics/SVG/1.1/DTD/svg11.dtd">
<!-- Created with Vectornator (http://vectornator.io/) -->
<svg height="100%" stroke-miterlimit="10" style="fill-rule:nonzero;clip-rule:evenodd;stroke-linecap:round;stroke-linejoin:round;" version="1.1" viewBox="0 0 1800 1800" width="100%" xml:space="preserve" xmlns="http://www.w3.org/2000/svg" xmlns:vectornator="http://vectornator.io" xmlns:xlink="http://www.w3.org/1999/xlink">
<defs>
<linearGradient gradientTransform="matrix(7.04826 0 0 7.04826 -1.022 4.17255)" gradientUnits="userSpaceOnUse" id="LinearGradient" x1="24.6871" x2="150.968" y1="22.9226" y2="148.502">
<stop offset="0" stop-color="#387eb8"/>
<stop offset="1" stop-color="#366994"/>
</linearGradient>
<linearGradient gradientTransform="matrix(7.04826 0 0 7.04826 -1.022 4.17255)" gradientUnits="userSpaceOnUse" id="LinearGradient_2" x1="102.369" x2="237.994" y1="103.381" y2="232.164">
<stop offset="0" stop-color="#ffe052"/>
<stop offset="1" stop-color="#ffc331"/>
</linearGradient>
</defs>
<g id="Untitled" vectornator:layerName="Untitled">
<g opacity="1">
<path d="M893.516 4.68002C436.562 4.68002 465.094 202.842 465.094 202.842L465.601 408.144L901.663 408.144L901.663 469.781L292.404 469.781C292.404 469.781 0 436.619 0 897.681C0 1358.76 255.218 1342.41 255.218 1342.41L407.531 1342.41L407.531 1128.45C407.531 1128.45 399.319 873.231 658.674 873.231L1091.17 873.231C1091.17 873.231 1334.16 877.157 1334.16 638.39L1334.16 243.602C1334.16 243.602 1371.06 4.68002 893.516 4.68002ZM653.071 142.741C673.882 142.723 693.847 150.982 708.562 165.697C723.278 180.413 731.537 200.377 731.518 221.189C731.537 242 723.278 261.964 708.562 276.68C693.847 291.396 673.882 299.655 653.071 299.636C632.26 299.655 612.296 291.396 597.58 276.68C582.864 261.964 574.605 242 574.624 221.189C574.605 200.377 582.864 180.413 597.58 165.697C612.296 150.982 632.26 142.723 653.071 142.741Z" fill="url(#LinearGradient)" fill-rule="nonzero" opacity="1" stroke="none"/>
<path d="M906.491 1795.32C1363.44 1795.32 1334.91 1597.16 1334.91 1597.16L1334.41 1391.86L898.337 1391.86L898.337 1330.23L1507.6 1330.23C1507.6 1330.23 1800 1363.39 1800 902.312C1800 441.243 1544.78 457.595 1544.78 457.595L1392.47 457.595L1392.47 671.545C1392.47 671.545 1400.68 926.762 1141.33 926.762L708.83 926.762C708.83 926.762 465.841 922.836 465.841 1161.61L465.841 1556.4C465.841 1556.4 428.943 1795.32 906.484 1795.32L906.491 1795.32ZM1146.94 1657.27C1126.12 1657.29 1106.16 1649.03 1091.44 1634.32C1076.73 1619.6 1068.47 1599.64 1068.49 1578.83C1068.47 1558.01 1076.73 1538.05 1091.44 1523.33C1106.16 1508.61 1126.12 1500.35 1146.94 1500.37C1167.75 1500.35 1187.71 1508.61 1202.43 1523.33C1217.14 1538.04 1225.4 1558.01 1225.38 1578.82C1225.4 1599.63 1217.14 1619.59 1202.43 1634.31C1187.71 1649.03 1167.75 1657.28 1146.94 1657.27L1146.94 1657.27Z" fill="url(#LinearGradient_2)" fill-rule="nonzero" opacity="1" stroke="none"/>
</g>
</g>
</svg>
