<?xml version="1.0" encoding="UTF-8" standalone="no"?>
<!DOCTYPE svg PUBLIC "-//W3C//DTD SVG 1.1//EN" "http://www.w3.org/Graphics/SVG/1.1/DTD/svg11.dtd">
<!-- Created with Vectornator (http://vectornator.io/) -->
<svg height="100%" stroke-miterlimit="10" style="fill-rule:nonzero;clip-rule:evenodd;stroke-linecap:round;stroke-linejoin:round;" version="1.1" viewBox="0 0 1800 1800" width="100%" xml:space="preserve" xmlns="http://www.w3.org/2000/svg" xmlns:vectornator="http://vectornator.io" xmlns:xlink="http://www.w3.org/1999/xlink">
<defs>
<linearGradient gradientTransform="matrix(0.00540517 0 0 0.00540517 -0.862891 -0.00540517)" gradientUnits="userSpaceOnUse" id="LinearGradient" x1="196383" x2="137302" y1="-1115.35" y2="333952">
<stop offset="0" stop-color="#f9b13d"/>
<stop offset="1" stop-color="#e63830"/>
</linearGradient>
<linearGradient gradientTransform="matrix(0.00540517 0 0 0.00540517 -0.862891 -0.00540517)" gradientUnits="userSpaceOnUse" id="LinearGradient_2" x1="173948" x2="125024" y1="-2539.76" y2="274914">
<stop offset="0" stop-color="#e5a235"/>
<stop offset="1" stop-color="#d23629"/>
</linearGradient>
</defs>
<clipPath id="ArtboardFrame">
<rect height="1800" width="1800" x="0" y="0"/>
</clipPath>
<g clip-path="url(#ArtboardFrame)" id="Untitled" vectornator:layerName="Untitled">
<g opacity="1">
<path d="M395.606 1.30805L1401.51 1.30805C1623.63-0.302689 1800.86 175.884 1800.86 399.047L1800.86 1403.17C1800.86 1622.76 1623.63 1801.87 1401.51 1799.99L395.606 1799.99C180.924 1799.99 1.03432 1622.76 1.03432 1403.17L1.03432 399.047C1.03432 175.884 180.924-2.83231 395.606 1.30805Z" fill="url(#LinearGradient)" fill-rule="nonzero" opacity="1" stroke="none"/>
<path d="M1520.05 1472.22C1520.05 1472.22 1449.94 1358.67 1335.29 1358.67C1218.21 1358.67 1160.43 1472.22 928.788 1472.22C426.178 1472.22 187.913 1058.69 182.491 1048.91C182.491 1051.72 185.296 1051.72 185.296 1051.72L-0.862891 856.151L-0.862891 397.588C-0.862891 175.457 180.599 4.3201e-11 394.249 4.3201e-11L753.898 4.3201e-11L1016.32 268.826C1016.6 268.826 1016.6 266.021 1019.19 263.34C1615.13 675.159 1422.99 1120.67 1422.99 1120.67C1422.99 1120.67 1587.98 1307.55 1520.05 1472.23L1520.05 1472.22Z" fill="url(#LinearGradient_2)" fill-rule="nonzero" opacity="1" stroke="none"/>
<path d="M1022.14 267.496C1615.99 671.776 1424.16 1119.49 1424.16 1119.49C1424.16 1119.49 1589.2 1308.01 1521.64 1473.3C1521.64 1473.3 1451.42 1358.55 1337 1358.55C1222.3 1358.55 1153.61 1473.3 929.977 1473.3C420.848 1473.3 188.307 1048.82 188.307 1048.82C639.887 1356.13 955.414 1138.24 955.414 1138.24C748.488 1018.46 308.134 453.445 308.134 453.445C688.615 772.896 850.402 857.503 850.402 857.503C754.785 781.474 482.44 386.723 482.44 386.723C704.301 607.054 1139.4 919.284 1139.4 919.284C1259.19 572.942 1022.14 267.496 1022.14 267.496L1022.14 267.496Z" fill="#fefefe" fill-rule="nonzero" opacity="1" stroke="none"/>
</g>
</g>
</svg>
