<?xml version="1.0" encoding="UTF-8" standalone="no"?>
<!DOCTYPE svg PUBLIC "-//W3C//DTD SVG 1.1//EN" "http://www.w3.org/Graphics/SVG/1.1/DTD/svg11.dtd">
<!-- Created with Vectornator (http://vectornator.io/) -->
<svg height="100%" stroke-miterlimit="10" style="fill-rule:nonzero;clip-rule:evenodd;stroke-linecap:round;stroke-linejoin:round;" version="1.1" viewBox="0 0 1800 1800" width="100%" xml:space="preserve" xmlns="http://www.w3.org/2000/svg" xmlns:vectornator="http://vectornator.io" xmlns:xlink="http://www.w3.org/1999/xlink">
<defs/>
<g id="Untitled" vectornator:layerName="Untitled">
<g opacity="1">
<path d="M1412.45 1800L387.55 1800C173.5 1800 0 1626.5 0 1412.45L0 387.55C0 173.5 173.5 0 387.55 0L1412.4 0C1626.5 0 1800 173.5 1800 387.55L1800 1412.4C1800 1626.5 1626.5 1800 1412.45 1800Z" fill="#0d47a1" fill-rule="nonzero" opacity="1" stroke="none"/>
<path d="M1800 387.55C1800 173.5 1626.5 0 1412.45 0L387.55 0C173.5 0 0 173.5 0 387.55L0 838.95C150 1000 425.1 1195.95 682.3 1194.25C1024.7 1192 1532.7 1058.3 1800 770.35L1800 387.55Z" fill="#1565c0" fill-rule="nonzero" opacity="1" stroke="none"/>
<path d="M1800 387.55C1800 173.5 1626.5 0 1412.45 0L387.55 0C173.5 0 0 173.5 0 387.55L0 825.05C150 1000 360.95 1067.95 684.7 1070.3C1207.15 1074.1 1616.4 828.85 1800 599.6L1800 387.55Z" fill="#1e88e5" fill-rule="nonzero" opacity="1" stroke="none"/>
<path d="M1800 387.55C1800 173.5 1626.5 0 1412.45 0L387.55 0C173.5 0 0 173.5 0 387.55L0 796.55C220.4 930 453.85 959.65 633.7 963.35C1158.05 966.35 1630.55 701.55 1800 393.45L1800 387.55Z" fill="#29b6f6" fill-rule="nonzero" opacity="1" stroke="none"/>
<path d="M1412.45 0L387.55 0C173.5 0 0 173.5 0 387.55L0 686.55C208.35 821.95 423.6 860.65 645.85 858.85C1005.55 858.85 1581.75 667.25 1759.1 214.95C1695.55 87.65 1564.4 0 1412.45 0Z" fill="#00e5ff" fill-rule="nonzero" opacity="1" stroke="none"/>
<path d="M1412.45 0L387.55 0C173.5 0 0 173.5 0 387.55L0 572.1C237.4 731.95 527.15 802.25 888.9 715.45C1336.05 608.15 1589.45 369.1 1680.4 108C1610.8 41.25 1516.5 0 1412.45 0Z" fill="#18ffff" fill-rule="nonzero" opacity="1" stroke="none"/>
<path d="M726.75 0L387.55 0C173.5 0 0 173.5 0 387.55L0 864.25L3.15 868.7C215.65 1168.7 740.65 1362.45 1084.4 1046.85C1284.4 796.85 1168.8 387.45 1018.75 253.1C943.4 185.6 825.5 84.2 726.75 0Z" fill="#448aff" fill-rule="nonzero" opacity="1" stroke="none"/>
<path d="M748.65 0L387.55 0C173.5 0 0 173.5 0 387.55L0 873.45C253.95 1071.1 650.25 1148.95 928.15 893.75C1128.15 643.75 1012.55 234.35 862.5 100C830.65 71.5 791.05 36.75 748.65 0Z" fill="#40c4ff" fill-rule="nonzero" opacity="1" stroke="none"/>
<path d="M387.55 0C173.5 0 0 173.5 0 387.55L0 784.15C234.3 882.9 515.75 882.45 728.15 687.5C889.35 486 845.4 181.1 743.75 0L387.55 0Z" fill="#00e5ff" fill-rule="nonzero" opacity="1" stroke="none"/>
<path d="M387.55 0C173.5 0 0 173.5 0 387.55L0 623.85C173.8 642.95 352.75 600.9 498.95 466.65C604.9 334.2 621.95 157.25 592.5 0L387.55 0Z" fill="#18ffff" fill-rule="nonzero" opacity="1" stroke="none"/>
<path d="M330.4 443.5C330.4 443.5 672.05 959.85 959.3 1134.5C850.6 1169.45 614.6 1312.25 203.1 1059.9C307.9 1203.55 493.45 1491.65 947.65 1464.5C1106.8 1456.75 1203.85 1406.25 1293.15 1371.35C1382.45 1336.45 1467.85 1340.3 1541.6 1472.3C1557.15 1351.95 1561 1239.35 1436.8 1111.25C1436.8 1111.25 1559.6 643.1 1036.75 273.7C1145.45 491.1 1208.4 613.7 1157.3 913.25C1040.85 835.6 610.75 489.25 513.7 376.65C583.6 500.9 784.65 773.45 854.5 843.35C730.3 757.95 330.4 443.5 330.4 443.5Z" fill="#212121" fill-rule="nonzero" opacity="1" stroke="none"/>
</g>
</g>
</svg>
