<?xml version="1.0" encoding="UTF-8" standalone="no"?>
<!DOCTYPE svg PUBLIC "-//W3C//DTD SVG 1.1//EN" "http://www.w3.org/Graphics/SVG/1.1/DTD/svg11.dtd">
<!-- Created with Vectornator (http://vectornator.io/) -->
<svg height="100%" stroke-miterlimit="10" style="fill-rule:nonzero;clip-rule:evenodd;stroke-linecap:round;stroke-linejoin:round;" version="1.1" viewBox="0 0 344.35 344.35" width="100%" xml:space="preserve" xmlns="http://www.w3.org/2000/svg" xmlns:vectornator="http://vectornator.io" xmlns:xlink="http://www.w3.org/1999/xlink">
<defs/>
<g id="Untitled" vectornator:layerName="Untitled">
<g opacity="1">
<path d="M321.282 258.262C323.683 254.103 325.175 249.417 325.175 245.209L325.175 99.1405C325.175 94.9325 323.685 90.2475 321.283 86.0885L172.175 172.176L321.282 258.262Z" fill="#00599c" fill-rule="nonzero" opacity="1" stroke="none"/>
<path d="M185.425 341.193L311.925 268.159C315.569 266.055 318.881 262.422 321.282 258.262L172.175 172.176L23.068 258.264C25.469 262.423 28.782 266.057 32.425 268.16L158.925 341.193C166.212 345.402 178.138 345.402 185.425 341.193Z" fill="#004482" fill-rule="nonzero" opacity="1" stroke="none"/>
<path d="M321.283 86.0875C318.881 81.9275 315.568 78.2945 311.925 76.1905L185.425 3.1565C178.138-1.0515 166.212-1.0515 158.925 3.1565L32.425 76.1905C25.137 80.3975 19.175 90.7255 19.175 99.1405L19.175 245.21C19.175 249.418 20.666 254.104 23.068 258.263L172.175 172.176L321.283 86.0875Z" fill="#659ad2" fill-rule="nonzero" opacity="1" stroke="none"/>
<path d="M172.175 274.175C115.932 274.175 70.175 228.418 70.175 172.175C70.175 115.932 115.932 70.1755 172.175 70.1755C208.467 70.1755 242.314 89.7055 260.506 121.143L216.363 146.687C207.258 130.951 190.325 121.175 172.175 121.175C144.053 121.175 121.175 144.053 121.175 172.175C121.175 200.296 144.053 223.175 172.175 223.175C190.327 223.175 207.26 213.399 216.366 197.66L260.509 223.203C242.317 254.644 208.469 274.175 172.175 274.175Z" fill="#ffffff" fill-rule="nonzero" opacity="1" stroke="none"/>
<path d="M274.175 166.508L262.841 166.508L262.841 155.176L251.509 155.176L251.509 166.508L240.175 166.508L240.175 177.842L251.509 177.842L251.509 189.176L262.841 189.176L262.841 177.842L274.175 177.842L274.175 166.508Z" fill="#ffffff" fill-rule="nonzero" opacity="1" stroke="none"/>
<path d="M316.675 166.508L305.341 166.508L305.341 155.176L294.009 155.176L294.009 166.508L282.675 166.508L282.675 177.842L294.009 177.842L294.009 189.176L305.341 189.176L305.341 177.842L316.675 177.842L316.675 166.508Z" fill="#ffffff" fill-rule="nonzero" opacity="1" stroke="none"/>
</g>
</g>
</svg>
