<?xml version="1.0" encoding="UTF-8" standalone="no"?>
<!DOCTYPE svg PUBLIC "-//W3C//DTD SVG 1.1//EN" "http://www.w3.org/Graphics/SVG/1.1/DTD/svg11.dtd">
<!-- Created with Vectornator (http://vectornator.io/) -->
<svg height="100%" stroke-miterlimit="10" style="fill-rule:nonzero;clip-rule:evenodd;stroke-linecap:round;stroke-linejoin:round;" version="1.1" viewBox="0 0 1800 1800" width="100%" xml:space="preserve" xmlns="http://www.w3.org/2000/svg" xmlns:vectornator="http://vectornator.io" xmlns:xlink="http://www.w3.org/1999/xlink">
<defs/>
<clipPath id="ArtboardFrame">
<rect height="1800" width="1800" x="0" y="0"/>
</clipPath>
<g clip-path="url(#ArtboardFrame)" id="layer1" vectornator:layerName="layer1">
<g opacity="1">
<path d="M907.361 75.4478L82.9951 900.922L903.926 1722.96L1728.29 897.482L907.361 75.4478Z" fill="#019833" fill-rule="nonzero" opacity="1" stroke="#000000" stroke-linecap="butt" stroke-linejoin="miter" stroke-width="1.10824"/>
<path d="M903.926 78.8874L903.926 6.65841L7.42815 904.361L82.995 904.361C82.995 904.361 903.926 78.8873 903.926 78.8874Z" fill="#66fe98" fill-rule="nonzero" opacity="1" stroke="#000000" stroke-linecap="butt" stroke-linejoin="miter" stroke-width="1.10824"/>
<path d="M901.865 78.8874L901.865 6.65841L1798.36 904.361L1722.8 904.361C1722.8 904.361 901.865 78.8873 901.865 78.8874Z" fill="#45fe02" fill-rule="nonzero" opacity="1" stroke="#000000" stroke-linecap="butt" stroke-linejoin="miter" stroke-width="1.10824"/>
<path d="M903.926 1727.77L903.926 1800L7.42815 902.297L82.995 902.297C82.995 902.297 903.926 1727.77 903.926 1727.77Z" fill="#017d17" fill-rule="nonzero" opacity="1" stroke="#000000" stroke-linecap="butt" stroke-linejoin="miter" stroke-width="1.10824"/>
<path d="M173.744 97.8264L751.8 97.8264L787.018 133.091L787.018 241.319L759.087 275.368L695.938 275.368L695.938 812.856L1239.99 275.368L1150.13 275.368L1118.55 241.319L1118.55 127.011L1147.7 100.258L1733.04 100.258L1762.19 129.443L1762.19 236.455L438.484 1595.98L287.898 1595.98L244.31 1570.79L244.31 270.504L171.315 270.504L144.598 243.751L144.598 129.443C144.598 129.443 173.743 97.8264 173.744 97.8264Z" fill="none" opacity="1" stroke="#000000" stroke-linecap="butt" stroke-linejoin="miter" stroke-width="27.7059"/>
<path d="M901.865 1727.77L901.865 1800L1798.36 902.297L1722.8 902.297C1722.8 902.297 901.865 1727.77 901.865 1727.77Z" fill="#005d04" fill-rule="nonzero" opacity="1" stroke="#000000" stroke-linecap="butt" stroke-linejoin="miter" stroke-width="1.10824"/>
<path d="M901.507-1.13687e-13L1.63739 901.079L897.758 1798.4L1797.63 897.325L901.507-1.13687e-13Z" fill="none" opacity="1" stroke="#000000" stroke-linecap="butt" stroke-linejoin="miter" stroke-width="8.31178"/>
<path d="M757.944 152.836L790.576 135.639L757.086 102.104L174.019 102.104L144.393 131.769L144.393 243.982L177.239 276.872L192.91 243.982L172.301 223.345L172.301 144.237L187.758 130.479L744.205 130.479C744.205 130.479 757.944 152.836 757.944 152.836Z" fill="#fefefe" fill-rule="nonzero" opacity="1" stroke="#000000" stroke-linecap="butt" stroke-linejoin="miter" stroke-width="1.10824"/>
<path d="M1170.17 127.016L1149.58 147.631L1149.58 223.321L1167.62 241.378L1262.89 241.378L1262.89 314.51L632.637 954.188L632.637 242.281L737.378 242.281L758.868 220.763L758.868 144.17L739.031 128.821L187.823 128.821L169.79 146.879L169.79 225.127L188.123 243.485L283.999 243.485L283.999 1554.44L302.032 1572.5L410.981 1572.5L1731.75 207.822L1731.75 147.631L1711.16 127.016L1170.17 127.016Z" fill="none" opacity="1" stroke="#000000" stroke-linecap="butt" stroke-linejoin="miter" stroke-width="1.10576"/>
<path d="M283.04 241.319L283.04 1554.64L300.042 1574.1L286.709 1599.54L249.037 1561.94L249.037 275.368L283.04 241.319Z" fill="#fefefe" fill-rule="nonzero" opacity="1" stroke="#000000" stroke-linecap="butt" stroke-linejoin="miter" stroke-width="1.10824"/>
<path d="M188.841 241.319L179.126 272.936L249.562 272.936L288.423 241.319C288.423 241.319 188.841 241.319 188.841 241.319Z" fill="#808080" fill-rule="nonzero" opacity="1" stroke="#000000" stroke-linecap="butt" stroke-linejoin="miter" stroke-width="1.10824"/>
<path d="M1156.39 276.829L1171.84 245.014L1149.52 224.377L1149.52 153.868L1175.28 128.072L1712.83 128.072L1733.44 155.588L1762.64 134.951L1732.59 104.855L1154.67 104.855L1125.9 133.661L1125.9 246.734L1155.74 274.894M688.711 817.837L632.572 954.233L1266.3 317.931L1266.3 242.262C1266.3 242.262 688.711 817.837 688.711 817.837Z" fill="#fefefe" fill-rule="nonzero" opacity="1" stroke="#000000" stroke-linecap="butt" stroke-linejoin="miter" stroke-width="1.10824"/>
<path d="M756.658 148.9L784.589 130.659L784.589 241.319L752.408 273.544L689.866 273.544L689.866 818.937L632.789 953.917L632.789 241.319L737.228 241.319L756.658 225.51C756.658 225.51 756.658 148.9 756.658 148.9Z" fill="#808080" fill-rule="nonzero" opacity="1" stroke="#000000" stroke-linecap="butt" stroke-linejoin="miter" stroke-width="1.10824"/>
<path d="M1170.17 127.016L1149.58 147.631L1149.58 223.321L1167.62 241.378L1262.89 241.378L1262.89 314.51L632.637 954.188L632.637 242.281L737.378 242.281L758.868 220.763L758.868 144.17L739.031 128.821L187.823 128.821L169.79 146.879L169.79 225.127L188.123 243.485L283.999 243.485L283.999 1554.44L302.032 1572.5L410.981 1572.5L1731.75 207.822L1731.75 147.631L1711.16 127.016L1170.17 127.016Z" fill="#cccccc" fill-rule="nonzero" opacity="1" stroke="#000000" stroke-linecap="butt" stroke-linejoin="miter" stroke-width="1.10576"/>
<path d="M1733.44 149.397L1762.78 132.438L1762.78 238.823L432.302 1600.19L291.048 1600.19L304.543 1573.34L412.741 1573.34L1731.73 209.587L1733.44 149.397Z" fill="#808080" fill-rule="nonzero" opacity="1" stroke="#000000" stroke-linecap="butt" stroke-linejoin="miter" stroke-width="1.10824"/>
<path d="M1263.67 243.143L1233.92 274.152L1156.2 274.152L1174.41 243.143C1175.02 243.143 1263.67 243.143 1263.67 243.143Z" fill="#808080" fill-rule="nonzero" opacity="1" stroke="#000000" stroke-linecap="butt" stroke-linejoin="miter" stroke-width="1.10824"/>
<g opacity="1">
<path d="M946.409 1010.68C945.406 1010.89 944.474 1011.36 943.705 1012.04L918.158 1034.01C917.394 1034.7 916.824 1035.58 916.505 1036.57L890.958 1108.19C890.188 1110.34 890.714 1112.74 892.311 1114.36L911.846 1133.92C912.975 1135.01 914.488 1135.61 916.054 1135.58L994.948 1135.58C996.514 1135.61 998.027 1135.01 999.156 1133.92L1019.74 1113.16C1020.45 1112.45 1020.97 1111.57 1021.25 1110.6L1043.19 1035.21C1043.8 1033.13 1043.22 1030.88 1041.68 1029.34L1024.7 1012.34C1023.57 1011.25 1022.06 1010.66 1020.5 1010.68L947.612 1010.68C947.212 1010.64 946.809 1010.64 946.409 1010.68ZM801.845 1212.62C799.634 1213.1 797.886 1214.79 797.337 1216.99L787.569 1255.81C787.129 1257.58 787.523 1259.45 788.637 1260.89C789.75 1262.32 791.462 1263.17 793.279 1263.18L839.714 1263.18L724.604 1592.28C724 1594.08 724.294 1596.06 725.394 1597.61C726.494 1599.15 728.267 1600.08 730.164 1600.1L897.72 1600.1C900.305 1600.14 902.615 1598.49 903.431 1596.04L914.401 1560.68C914.953 1558.87 914.613 1556.91 913.486 1555.39C912.358 1553.88 910.578 1552.99 908.69 1553L870.821 1553L984.73 1220.45C985.333 1218.65 985.039 1216.67 983.939 1215.12C982.839 1213.57 981.066 1212.64 979.169 1212.62L803.047 1212.62C802.647 1212.58 802.245 1212.58 801.845 1212.62ZM1335.02 1213.83C1333.73 1214.09 1332.57 1214.78 1331.71 1215.78L1296.85 1255.21L1241.4 1255.21L1204.43 1216.84C1203.33 1215.7 1201.81 1215.04 1200.22 1215.03L1067.83 1215.03C1065.34 1215.04 1063.12 1216.6 1062.27 1218.94L1050.1 1255.36C1049.5 1257.16 1049.79 1259.14 1050.89 1260.69C1051.99 1262.24 1053.76 1263.16 1055.66 1263.18L1091.12 1263.18L980.822 1588.67C980.219 1590.47 980.513 1592.45 981.613 1594C982.713 1595.54 984.486 1596.47 986.383 1596.49L1127.34 1596.49C1129.83 1596.48 1132.05 1594.92 1132.9 1592.58L1143.72 1560.83C1144.32 1559.03 1144.03 1557.05 1142.93 1555.5C1141.83 1553.95 1140.06 1553.02 1138.16 1553L1113.52 1553L1183.84 1331.35L1311.13 1331.35L1230.88 1588.82C1230.33 1590.62 1230.67 1592.59 1231.8 1594.1C1232.92 1595.62 1234.7 1596.5 1236.59 1596.49L1372.59 1596.49C1374.95 1596.47 1377.07 1595.05 1378 1592.88L1390.17 1563.69C1390.89 1561.87 1390.67 1559.83 1389.59 1558.2C1388.51 1556.58 1386.71 1555.59 1384.76 1555.56L1360.12 1555.56L1431.65 1330.15L1552.77 1330.15L1471.32 1588.82C1470.77 1590.62 1471.11 1592.59 1472.24 1594.1C1473.36 1595.62 1475.14 1596.5 1477.03 1596.49L1626.4 1596.49C1628.86 1596.51 1631.07 1595.01 1631.96 1592.73L1644.14 1560.98C1644.8 1559.16 1644.54 1557.13 1643.43 1555.54C1642.32 1553.95 1640.51 1553.01 1638.58 1553L1608.97 1553L1698.99 1260.32C1699.59 1258.48 1699.25 1256.46 1698.09 1254.91L1670.13 1217.29C1668.98 1215.82 1667.19 1214.98 1665.33 1215.03L1558.48 1215.03C1556.84 1215 1555.26 1215.66 1554.12 1216.84L1520.46 1253.85L1461.55 1253.85L1426.69 1215.63C1425.55 1214.45 1423.97 1213.8 1422.33 1213.83L1336.22 1213.83C1335.82 1213.79 1335.42 1213.79 1335.02 1213.83Z" fill="#cccccc" fill-rule="nonzero" opacity="1" stroke="#000000" stroke-linecap="butt" stroke-linejoin="miter" stroke-width="11.0576"/>
<path d="M947.612 1016.55L922.065 1038.52L896.518 1110.15L916.054 1129.71L994.948 1129.71L1015.54 1108.94L1037.48 1033.56L1020.5 1016.55L947.612 1016.55ZM803.047 1218.49L793.279 1257.32L847.979 1257.32L730.164 1594.23L897.72 1594.23L908.69 1558.87L862.556 1558.87L979.169 1218.49L803.047 1218.49ZM1336.22 1219.7L1299.71 1261.08L1238.99 1261.08L1200.22 1220.9L1067.83 1220.9L1055.66 1257.32L1099.39 1257.32L986.383 1590.62L1127.34 1590.62L1138.16 1558.87L1105.4 1558.87L1179.49 1325.48L1319.24 1325.48L1236.59 1590.62L1372.59 1590.62L1384.76 1561.43L1352 1561.43L1427.29 1324.28L1560.88 1324.28L1477.03 1590.62L1626.4 1590.62L1638.58 1558.87L1600.86 1558.87L1693.28 1258.52L1665.33 1220.9L1558.48 1220.9L1523.16 1259.72L1458.85 1259.72L1422.33 1219.7L1336.22 1219.7Z" fill="#cccccc" fill-rule="nonzero" opacity="1" stroke="#000000" stroke-linecap="butt" stroke-linejoin="miter" stroke-width="1.3822"/>
</g>
</g>
</g>
</svg>
