<?xml version="1.0" encoding="UTF-8" standalone="no"?>
<!DOCTYPE svg PUBLIC "-//W3C//DTD SVG 1.1//EN" "http://www.w3.org/Graphics/SVG/1.1/DTD/svg11.dtd">
<!-- Created with Vectornator (http://vectornator.io/) -->
<svg height="100%" stroke-miterlimit="10" style="fill-rule:nonzero;clip-rule:evenodd;stroke-linecap:round;stroke-linejoin:round;" version="1.1" viewBox="0 0 1800 1800" width="100%" xml:space="preserve" xmlns="http://www.w3.org/2000/svg" xmlns:vectornator="http://vectornator.io" xmlns:xlink="http://www.w3.org/1999/xlink">
<defs>
<linearGradient gradientTransform="matrix(18 0 0 18.0933 8.80771e-06 -4.66579)" gradientUnits="userSpaceOnUse" id="LinearGradient" x1="49.9392" x2="49.9392" y1="0.257812" y2="99.7423">
<stop offset="0" stop-color="#ffffff"/>
<stop offset="1" stop-color="#ffffff" stop-opacity="0"/>
</linearGradient>
</defs>
<clipPath id="ArtboardFrame">
<rect height="1800" width="1800" x="0" y="0"/>
</clipPath>
<g clip-path="url(#ArtboardFrame)" id="Untitled" vectornator:layerName="Untitled">
<g opacity="1">
<clipPath id="ClipPath">
<path d="M1276.41 1792.31C1304.76 1803.41 1337.09 1802.7 1365.7 1788.86L1736.29 1609.61C1775.24 1590.78 1800 1551.16 1800 1507.7L1800 292.305C1800 248.845 1775.24 209.229 1736.3 190.394L1365.7 11.1433C1328.15-7.02025 1284.2-2.57131 1251.24 21.5143C1246.54 24.9549 1242.05 28.7965 1237.84 33.0299L528.392 683.63L219.37 447.84C190.602 425.891 150.365 427.689 123.648 452.119L24.5345 542.745C-8.14593 572.626-8.18339 624.305 24.4535 654.237L292.448 900L24.4535 1145.76C-8.18339 1175.69-8.14593 1227.37 24.5345 1257.26L123.648 1347.88C150.365 1372.31 190.602 1374.11 219.37 1352.16L528.392 1116.37L1237.84 1766.97C1249.07 1778.26 1262.24 1786.76 1276.41 1792.31ZM1350.27 489.261L811.964 900L1350.27 1310.74L1350.27 489.261Z"/>
</clipPath>
<g clip-path="url(#ClipPath)">
<path d="M1736.31 190.673L1365.42 11.1756C1322.49-9.60115 1271.19-0.837053 1237.5 33.0285L23.3744 1145.76C-9.28247 1175.69-9.24492 1227.37 23.4554 1257.25L122.629 1347.88C149.363 1372.31 189.625 1374.11 218.408 1352.16L1680.5 237.24C1729.55 199.835 1800 235.001 1800 296.889L1800 292.562C1800 249.12 1775.24 209.519 1736.31 190.673Z" fill="#0065a9" fill-rule="nonzero" opacity="1" stroke="none"/>
<path d="M1736.31 1609.32L1365.42 1788.82C1322.49 1809.6 1271.19 1800.83 1237.5 1766.97L23.3744 654.235C-9.28247 624.305-9.24492 572.624 23.4554 542.743L122.629 452.117C149.363 427.688 189.625 425.889 218.408 447.838L1680.5 1562.76C1729.55 1600.16 1800 1564.99 1800 1503.11L1800 1507.44C1800 1550.88 1775.24 1590.48 1736.31 1609.32Z" fill="#007acc" fill-rule="nonzero" opacity="1" stroke="none"/>
<path d="M1365.44 1788.85C1322.5 1809.62 1271.19 1800.84 1237.5 1766.97C1279.02 1808.7 1350 1779.14 1350 1720.13L1350 79.8684C1350 20.8528 1279.02-8.70251 1237.5 33.0278C1271.19-0.840834 1322.5-9.6173 1365.44 11.1411L1736.26 190.392C1775.22 209.228 1800 248.843 1800 292.303L1800 1507.7C1800 1551.16 1775.22 1590.77 1736.25 1609.61L1365.44 1788.85Z" fill="#1f9cf0" fill-rule="nonzero" opacity="1" stroke="none"/>
<path d="M1275.32 1792.31C1303.67 1803.41 1336 1802.7 1364.61 1788.86L1735.2 1609.61C1774.14 1590.78 1798.91 1551.16 1798.91 1507.7L1798.91 292.305C1798.91 248.843 1774.14 209.228 1735.2 190.392L1364.61 11.1422C1327.06-7.02135 1283.11-2.57242 1250.15 21.513C1245.44 24.9538 1240.96 28.7954 1236.75 33.0288L527.297 683.628L218.275 447.84C189.509 425.889 149.271 427.689 122.554 452.117L23.4405 542.743C-9.24 572.626-9.27746 624.305 23.3595 654.235L291.353 899.998L23.3595 1145.76C-9.27746 1175.69-9.24 1227.37 23.4405 1257.25L122.554 1347.88C149.271 1372.31 189.509 1374.11 218.275 1352.16L527.297 1116.37L1236.75 1766.97C1247.97 1778.25 1261.15 1786.76 1275.32 1792.31ZM1349.18 489.261L810.869 899.998L1349.18 1310.74L1349.18 489.261Z" fill="url(#LinearGradient)" fill-rule="evenodd" opacity="0.25" stroke="none"/>
</g>
</g>
</g>
</svg>
